<mxfile host="65bd71144e">
    <diagram id="W_Zn9l5jwbDUQcaEqtOM" name="Page-1">
        <mxGraphModel dx="1174" dy="863" grid="1" gridSize="10" guides="1" tooltips="1" connect="1" arrows="1" fold="1" page="1" pageScale="1" pageWidth="850" pageHeight="1100" math="0" shadow="0">
            <root>
                <mxCell id="0"/>
                <mxCell id="1" parent="0"/>
                <mxCell id="2" value="a.python" style="rounded=0;whiteSpace=wrap;html=1;" vertex="1" parent="1">
                    <mxGeometry x="100" y="40" width="120" height="60" as="geometry"/>
                </mxCell>
                <mxCell id="3" value="b.python" style="rounded=0;whiteSpace=wrap;html=1;" vertex="1" parent="1">
                    <mxGeometry x="490" y="40" width="120" height="60" as="geometry"/>
                </mxCell>
                <mxCell id="4" value="执行代码4&lt;br&gt;执行代码5&lt;br&gt;if __name__ == '__main__'&lt;br&gt;执行代码1&lt;br&gt;执行代码2&lt;br&gt;执行代码3" style="whiteSpace=wrap;html=1;aspect=fixed;" vertex="1" parent="1">
                    <mxGeometry x="81" y="140" width="200" height="200" as="geometry"/>
                </mxCell>
                <mxCell id="5" value="import a.python(导入完就会执行a的代码)&lt;br&gt;if __name__ == '__main__'&lt;br&gt;执行代码6&lt;br&gt;执行代码7&lt;br&gt;执行代码8" style="whiteSpace=wrap;html=1;aspect=fixed;" vertex="1" parent="1">
                    <mxGeometry x="469" y="140" width="200" height="200" as="geometry"/>
                </mxCell>
                <mxCell id="6" value="" style="endArrow=classic;html=1;entryX=1;entryY=0.5;entryDx=0;entryDy=0;" edge="1" parent="1" target="4">
                    <mxGeometry width="50" height="50" relative="1" as="geometry">
                        <mxPoint x="460" y="200" as="sourcePoint"/>
                        <mxPoint x="390" y="200" as="targetPoint"/>
                    </mxGeometry>
                </mxCell>
            </root>
        </mxGraphModel>
    </diagram>
</mxfile>